<mxfile host="app.diagrams.net" modified="2022-09-23T13:14:39.495Z" agent="5.0 (X11)" etag="ZG-0n5nc8rYu9vKGACA8" version="20.3.3" type="github" pages="2">
  <diagram name="Test System" id="62VlMDe7ohYMkeKZe5SM">
    <mxGraphModel dx="1422" dy="793" grid="1" gridSize="10" guides="1" tooltips="1" connect="1" arrows="1" fold="1" page="1" pageScale="1" pageWidth="900" pageHeight="700" math="0" shadow="0">
      <root>
        <mxCell id="eOcYcok8aMyOiRNlvmHN-0" />
        <mxCell id="eOcYcok8aMyOiRNlvmHN-1" parent="eOcYcok8aMyOiRNlvmHN-0" />
        <mxCell id="YFRdIE4Qj46ghZl5U2MR-0" value="" style="group" parent="eOcYcok8aMyOiRNlvmHN-1" vertex="1" connectable="0">
          <mxGeometry x="10" y="23" width="880" height="655" as="geometry" />
        </mxCell>
        <mxCell id="eOcYcok8aMyOiRNlvmHN-3" value="" style="rounded=1;whiteSpace=wrap;html=1;" parent="YFRdIE4Qj46ghZl5U2MR-0" vertex="1">
          <mxGeometry x="430" width="420" height="220" as="geometry" />
        </mxCell>
        <mxCell id="eOcYcok8aMyOiRNlvmHN-4" value="VM: Guest" style="text;html=1;strokeColor=none;fillColor=none;align=center;verticalAlign=middle;whiteSpace=wrap;rounded=0;fontStyle=1;fontSize=15;" parent="YFRdIE4Qj46ghZl5U2MR-0" vertex="1">
          <mxGeometry x="430" y="5" width="420" height="30" as="geometry" />
        </mxCell>
        <mxCell id="eOcYcok8aMyOiRNlvmHN-5" value="" style="rounded=1;whiteSpace=wrap;html=1;" parent="YFRdIE4Qj46ghZl5U2MR-0" vertex="1">
          <mxGeometry y="345" width="360" height="190" as="geometry" />
        </mxCell>
        <mxCell id="eOcYcok8aMyOiRNlvmHN-6" value="Server: LoadGen" style="text;html=1;strokeColor=none;fillColor=none;align=center;verticalAlign=middle;whiteSpace=wrap;rounded=0;fontStyle=1;fontSize=15;" parent="YFRdIE4Qj46ghZl5U2MR-0" vertex="1">
          <mxGeometry x="17.5" y="355" width="325" height="30" as="geometry" />
        </mxCell>
        <mxCell id="eOcYcok8aMyOiRNlvmHN-7" value="" style="rounded=1;whiteSpace=wrap;html=1;" parent="YFRdIE4Qj46ghZl5U2MR-0" vertex="1">
          <mxGeometry x="400" y="235" width="480" height="300" as="geometry" />
        </mxCell>
        <mxCell id="eOcYcok8aMyOiRNlvmHN-8" value="Server: Host" style="text;html=1;strokeColor=none;fillColor=none;align=center;verticalAlign=middle;whiteSpace=wrap;rounded=0;fontStyle=1;fontSize=15;" parent="YFRdIE4Qj46ghZl5U2MR-0" vertex="1">
          <mxGeometry x="470" y="245" width="340" height="30" as="geometry" />
        </mxCell>
        <mxCell id="eOcYcok8aMyOiRNlvmHN-9" value="&lt;b&gt;VLAN&lt;/b&gt;: ADMIN" style="rounded=1;whiteSpace=wrap;html=1;fillColor=#f5f5f5;fontColor=#333333;strokeColor=#666666;" parent="YFRdIE4Qj46ghZl5U2MR-0" vertex="1">
          <mxGeometry y="625" width="880" height="30" as="geometry" />
        </mxCell>
        <mxCell id="eOcYcok8aMyOiRNlvmHN-10" style="edgeStyle=orthogonalEdgeStyle;rounded=1;orthogonalLoop=1;jettySize=auto;html=1;startArrow=classic;startFill=1;strokeWidth=2;fillColor=#f5f5f5;strokeColor=#666666;" parent="YFRdIE4Qj46ghZl5U2MR-0" source="eOcYcok8aMyOiRNlvmHN-11" edge="1">
          <mxGeometry relative="1" as="geometry">
            <Array as="points">
              <mxPoint x="85" y="625" />
            </Array>
            <mxPoint x="85" y="625" as="targetPoint" />
          </mxGeometry>
        </mxCell>
        <mxCell id="eOcYcok8aMyOiRNlvmHN-11" value="&lt;b&gt;NIC&lt;/b&gt;: Intel I350 1G" style="rounded=1;whiteSpace=wrap;html=1;fillColor=#f5f5f5;fontColor=#333333;strokeColor=#666666;" parent="YFRdIE4Qj46ghZl5U2MR-0" vertex="1">
          <mxGeometry x="25" y="515" width="120" height="40" as="geometry" />
        </mxCell>
        <mxCell id="eOcYcok8aMyOiRNlvmHN-12" style="edgeStyle=orthogonalEdgeStyle;rounded=1;orthogonalLoop=1;jettySize=auto;html=1;startArrow=classic;startFill=1;strokeWidth=2;fillColor=#f5f5f5;strokeColor=#666666;" parent="YFRdIE4Qj46ghZl5U2MR-0" source="eOcYcok8aMyOiRNlvmHN-13" target="eOcYcok8aMyOiRNlvmHN-9" edge="1">
          <mxGeometry relative="1" as="geometry">
            <Array as="points">
              <mxPoint x="680" y="655" />
              <mxPoint x="680" y="655" />
            </Array>
          </mxGeometry>
        </mxCell>
        <mxCell id="eOcYcok8aMyOiRNlvmHN-13" value="&lt;b&gt;NIC&lt;/b&gt;: Intel I350 1G" style="rounded=1;whiteSpace=wrap;html=1;fillColor=#f5f5f5;fontColor=#333333;strokeColor=#666666;" parent="YFRdIE4Qj46ghZl5U2MR-0" vertex="1">
          <mxGeometry x="720" y="515" width="120" height="40" as="geometry" />
        </mxCell>
        <mxCell id="eOcYcok8aMyOiRNlvmHN-14" value="&lt;b&gt;NIC&lt;/b&gt;: Intel 82599ES 10G" style="rounded=1;whiteSpace=wrap;html=1;fillColor=#e1d5e7;strokeColor=#9673a6;" parent="YFRdIE4Qj46ghZl5U2MR-0" vertex="1">
          <mxGeometry x="180" y="515" width="150" height="40" as="geometry" />
        </mxCell>
        <mxCell id="eOcYcok8aMyOiRNlvmHN-15" value="&lt;b&gt;NIC&lt;/b&gt;: Intel 82599ES 10G" style="rounded=1;whiteSpace=wrap;html=1;fillColor=#e1d5e7;strokeColor=#9673a6;" parent="YFRdIE4Qj46ghZl5U2MR-0" vertex="1">
          <mxGeometry x="440" y="515" width="150" height="40" as="geometry" />
        </mxCell>
        <mxCell id="eOcYcok8aMyOiRNlvmHN-16" style="edgeStyle=orthogonalEdgeStyle;rounded=1;orthogonalLoop=1;jettySize=auto;html=1;exitX=0.5;exitY=1;exitDx=0;exitDy=0;startArrow=classic;startFill=1;strokeWidth=2;" parent="YFRdIE4Qj46ghZl5U2MR-0" source="eOcYcok8aMyOiRNlvmHN-14" target="eOcYcok8aMyOiRNlvmHN-15" edge="1">
          <mxGeometry relative="1" as="geometry">
            <mxPoint x="530" y="555" as="targetPoint" />
            <Array as="points">
              <mxPoint x="255" y="595" />
              <mxPoint x="520" y="595" />
            </Array>
          </mxGeometry>
        </mxCell>
        <mxCell id="eOcYcok8aMyOiRNlvmHN-17" value="&lt;b&gt;Cable&lt;/b&gt;: Coaxial DAC 10G" style="text;html=1;align=center;verticalAlign=middle;whiteSpace=wrap;rounded=0;" parent="YFRdIE4Qj46ghZl5U2MR-0" vertex="1">
          <mxGeometry x="310" y="565" width="140" height="30" as="geometry" />
        </mxCell>
        <mxCell id="eOcYcok8aMyOiRNlvmHN-18" style="edgeStyle=orthogonalEdgeStyle;rounded=1;orthogonalLoop=1;jettySize=auto;html=1;startArrow=classic;startFill=1;strokeWidth=2;fillColor=#f5f5f5;strokeColor=#666666;" parent="YFRdIE4Qj46ghZl5U2MR-0" source="eOcYcok8aMyOiRNlvmHN-19" target="eOcYcok8aMyOiRNlvmHN-11" edge="1">
          <mxGeometry relative="1" as="geometry" />
        </mxCell>
        <mxCell id="eOcYcok8aMyOiRNlvmHN-19" value="&lt;b&gt;Interface&lt;/b&gt;: ens3" style="rounded=1;whiteSpace=wrap;html=1;fillColor=#f5f5f5;fontColor=#333333;strokeColor=#666666;" parent="YFRdIE4Qj46ghZl5U2MR-0" vertex="1">
          <mxGeometry x="35" y="445" width="100" height="30" as="geometry" />
        </mxCell>
        <mxCell id="eOcYcok8aMyOiRNlvmHN-20" style="edgeStyle=orthogonalEdgeStyle;rounded=1;orthogonalLoop=1;jettySize=auto;html=1;startArrow=classic;startFill=1;strokeWidth=2;fillColor=#f5f5f5;strokeColor=#666666;" parent="YFRdIE4Qj46ghZl5U2MR-0" source="eOcYcok8aMyOiRNlvmHN-21" target="eOcYcok8aMyOiRNlvmHN-13" edge="1">
          <mxGeometry relative="1" as="geometry" />
        </mxCell>
        <mxCell id="eOcYcok8aMyOiRNlvmHN-21" value="&lt;b&gt;Interface&lt;/b&gt;: ens3" style="rounded=1;whiteSpace=wrap;html=1;fillColor=#f5f5f5;fontColor=#333333;strokeColor=#666666;" parent="YFRdIE4Qj46ghZl5U2MR-0" vertex="1">
          <mxGeometry x="760" y="445" width="100" height="30" as="geometry" />
        </mxCell>
        <mxCell id="eOcYcok8aMyOiRNlvmHN-22" style="edgeStyle=orthogonalEdgeStyle;rounded=1;orthogonalLoop=1;jettySize=auto;html=1;startArrow=classic;startFill=1;strokeWidth=2;fillColor=#dae8fc;strokeColor=#6c8ebf;" parent="YFRdIE4Qj46ghZl5U2MR-0" source="eOcYcok8aMyOiRNlvmHN-23" target="eOcYcok8aMyOiRNlvmHN-14" edge="1">
          <mxGeometry relative="1" as="geometry" />
        </mxCell>
        <mxCell id="eOcYcok8aMyOiRNlvmHN-23" value="&lt;div&gt;&lt;b&gt;DPDK&lt;/b&gt;:&lt;b&gt; &lt;/b&gt;&lt;br&gt;&lt;/div&gt;&lt;div&gt;MoonGen&lt;/div&gt;&lt;div&gt;l2-load-latency&lt;br&gt;&lt;/div&gt;" style="rounded=1;whiteSpace=wrap;html=1;fillColor=#dae8fc;strokeColor=#6c8ebf;" parent="YFRdIE4Qj46ghZl5U2MR-0" vertex="1">
          <mxGeometry x="199.38" y="405" width="111.25" height="70" as="geometry" />
        </mxCell>
        <mxCell id="eOcYcok8aMyOiRNlvmHN-24" style="edgeStyle=orthogonalEdgeStyle;rounded=1;orthogonalLoop=1;jettySize=auto;html=1;startArrow=classic;startFill=1;strokeWidth=2;fillColor=#f5f5f5;strokeColor=#666666;" parent="YFRdIE4Qj46ghZl5U2MR-0" source="eOcYcok8aMyOiRNlvmHN-25" target="eOcYcok8aMyOiRNlvmHN-21" edge="1">
          <mxGeometry relative="1" as="geometry" />
        </mxCell>
        <mxCell id="eOcYcok8aMyOiRNlvmHN-25" value="&lt;b&gt;Bridge&lt;/b&gt;: br0" style="rounded=1;whiteSpace=wrap;html=1;fillColor=#f5f5f5;fontColor=#333333;strokeColor=#666666;" parent="YFRdIE4Qj46ghZl5U2MR-0" vertex="1">
          <mxGeometry x="766.25" y="375" width="87.5" height="30" as="geometry" />
        </mxCell>
        <mxCell id="eOcYcok8aMyOiRNlvmHN-26" style="edgeStyle=orthogonalEdgeStyle;rounded=1;orthogonalLoop=1;jettySize=auto;html=1;fontSize=15;strokeWidth=2;startArrow=classic;startFill=1;entryX=0.5;entryY=0;entryDx=0;entryDy=0;" parent="YFRdIE4Qj46ghZl5U2MR-0" source="eOcYcok8aMyOiRNlvmHN-27" target="eOcYcok8aMyOiRNlvmHN-15" edge="1">
          <mxGeometry relative="1" as="geometry">
            <mxPoint x="515" y="515" as="targetPoint" />
            <Array as="points" />
          </mxGeometry>
        </mxCell>
        <mxCell id="eOcYcok8aMyOiRNlvmHN-27" value="&lt;b&gt;Interface&lt;/b&gt;: enp176s0" style="rounded=1;whiteSpace=wrap;html=1;fillColor=#fff2cc;strokeColor=#d6b656;" parent="YFRdIE4Qj46ghZl5U2MR-0" vertex="1">
          <mxGeometry x="455" y="445" width="120" height="30" as="geometry" />
        </mxCell>
        <mxCell id="eOcYcok8aMyOiRNlvmHN-28" style="edgeStyle=orthogonalEdgeStyle;rounded=1;orthogonalLoop=1;jettySize=auto;html=1;fontSize=15;startArrow=classic;startFill=1;strokeWidth=2;exitX=0.5;exitY=1;exitDx=0;exitDy=0;fillColor=#ffe6cc;strokeColor=#d79b00;" parent="YFRdIE4Qj46ghZl5U2MR-0" source="eOcYcok8aMyOiRNlvmHN-42" target="eOcYcok8aMyOiRNlvmHN-27" edge="1">
          <mxGeometry relative="1" as="geometry">
            <mxPoint x="515.0999999999999" y="415" as="sourcePoint" />
            <Array as="points">
              <mxPoint x="680" y="425" />
              <mxPoint x="560" y="425" />
            </Array>
          </mxGeometry>
        </mxCell>
        <mxCell id="eOcYcok8aMyOiRNlvmHN-29" value="&lt;b&gt;NIC&lt;/b&gt;: VirtIO Net PCI/MMIO" style="rounded=1;whiteSpace=wrap;html=1;fillColor=#e1d5e7;strokeColor=#9673a6;" parent="YFRdIE4Qj46ghZl5U2MR-0" vertex="1">
          <mxGeometry x="476.25" y="205" width="95" height="40" as="geometry" />
        </mxCell>
        <mxCell id="eOcYcok8aMyOiRNlvmHN-31" value="&lt;b&gt;NIC&lt;/b&gt;: VirtIO Net PCI/MMIO" style="rounded=1;whiteSpace=wrap;html=1;fillColor=#f5f5f5;strokeColor=#666666;fontColor=#333333;" parent="YFRdIE4Qj46ghZl5U2MR-0" vertex="1">
          <mxGeometry x="710" y="205" width="95" height="40" as="geometry" />
        </mxCell>
        <mxCell id="eOcYcok8aMyOiRNlvmHN-32" style="edgeStyle=orthogonalEdgeStyle;rounded=1;orthogonalLoop=1;jettySize=auto;html=1;entryX=0.5;entryY=0;entryDx=0;entryDy=0;fontSize=15;startArrow=classic;startFill=1;strokeWidth=2;fillColor=#f5f5f5;strokeColor=#666666;" parent="YFRdIE4Qj46ghZl5U2MR-0" source="eOcYcok8aMyOiRNlvmHN-33" target="eOcYcok8aMyOiRNlvmHN-31" edge="1">
          <mxGeometry relative="1" as="geometry" />
        </mxCell>
        <mxCell id="eOcYcok8aMyOiRNlvmHN-33" value="&lt;b&gt;Interface&lt;/b&gt;: admin" style="rounded=1;whiteSpace=wrap;html=1;fillColor=#f5f5f5;fontColor=#333333;strokeColor=#666666;" parent="YFRdIE4Qj46ghZl5U2MR-0" vertex="1">
          <mxGeometry x="707.5" y="135" width="100" height="30" as="geometry" />
        </mxCell>
        <mxCell id="eOcYcok8aMyOiRNlvmHN-34" style="edgeStyle=orthogonalEdgeStyle;rounded=1;orthogonalLoop=1;jettySize=auto;html=1;fontSize=15;startArrow=classic;startFill=1;strokeWidth=2;" parent="YFRdIE4Qj46ghZl5U2MR-0" source="eOcYcok8aMyOiRNlvmHN-35" target="eOcYcok8aMyOiRNlvmHN-29" edge="1">
          <mxGeometry relative="1" as="geometry">
            <Array as="points">
              <mxPoint x="635" y="185" />
              <mxPoint x="550" y="185" />
            </Array>
          </mxGeometry>
        </mxCell>
        <mxCell id="eOcYcok8aMyOiRNlvmHN-35" value="&lt;b&gt;Interface&lt;/b&gt;: test" style="rounded=1;whiteSpace=wrap;html=1;fillColor=#fff2cc;strokeColor=#d6b656;" parent="YFRdIE4Qj46ghZl5U2MR-0" vertex="1">
          <mxGeometry x="590" y="135" width="90" height="30" as="geometry" />
        </mxCell>
        <mxCell id="eOcYcok8aMyOiRNlvmHN-36" style="edgeStyle=orthogonalEdgeStyle;rounded=1;orthogonalLoop=1;jettySize=auto;html=1;fontSize=15;startArrow=classic;startFill=1;strokeWidth=2;fillColor=#dae8fc;strokeColor=#6c8ebf;" parent="YFRdIE4Qj46ghZl5U2MR-0" source="eOcYcok8aMyOiRNlvmHN-40" edge="1">
          <mxGeometry relative="1" as="geometry">
            <mxPoint x="505" y="205" as="targetPoint" />
            <Array as="points">
              <mxPoint x="505" y="205" />
            </Array>
          </mxGeometry>
        </mxCell>
        <mxCell id="eOcYcok8aMyOiRNlvmHN-37" style="edgeStyle=orthogonalEdgeStyle;rounded=1;orthogonalLoop=1;jettySize=auto;html=1;fontSize=15;startArrow=classic;startFill=1;strokeWidth=2;fillColor=#d5e8d4;strokeColor=#82b366;" parent="YFRdIE4Qj46ghZl5U2MR-0" source="eOcYcok8aMyOiRNlvmHN-38" target="eOcYcok8aMyOiRNlvmHN-35" edge="1">
          <mxGeometry relative="1" as="geometry" />
        </mxCell>
        <mxCell id="eOcYcok8aMyOiRNlvmHN-38" value="&lt;div&gt;&lt;b&gt;XDP&lt;/b&gt;: &lt;b&gt;&lt;br&gt;&lt;/b&gt;&lt;/div&gt;&lt;div&gt;xdp-reflector&lt;br&gt;&lt;/div&gt;" style="rounded=1;whiteSpace=wrap;html=1;fillColor=#d5e8d4;strokeColor=#82b366;" parent="YFRdIE4Qj46ghZl5U2MR-0" vertex="1">
          <mxGeometry x="592.5" y="35" width="85" height="60" as="geometry" />
        </mxCell>
        <mxCell id="eOcYcok8aMyOiRNlvmHN-39" value="" style="rounded=1;whiteSpace=wrap;html=1;fontSize=15;fillColor=none;dashed=1;strokeWidth=2;strokeColor=#999999;" parent="YFRdIE4Qj46ghZl5U2MR-0" vertex="1">
          <mxGeometry x="450" y="25" width="110" height="150" as="geometry" />
        </mxCell>
        <mxCell id="eOcYcok8aMyOiRNlvmHN-40" value="&lt;div&gt;&lt;b&gt;DPDK&lt;/b&gt;: &lt;b&gt;&lt;br&gt;&lt;/b&gt;&lt;/div&gt;&lt;div&gt;libmoon&lt;br&gt;&lt;/div&gt;&lt;div&gt;l2-reflector&lt;br&gt;&lt;/div&gt;" style="rounded=1;whiteSpace=wrap;html=1;fillColor=#dae8fc;strokeColor=#6c8ebf;" parent="YFRdIE4Qj46ghZl5U2MR-0" vertex="1">
          <mxGeometry x="460" y="35" width="90" height="60" as="geometry" />
        </mxCell>
        <mxCell id="eOcYcok8aMyOiRNlvmHN-41" value="&lt;font color=&quot;#999999&quot;&gt;PCI only&lt;/font&gt;" style="text;html=1;strokeColor=none;fillColor=none;align=center;verticalAlign=middle;whiteSpace=wrap;rounded=0;dashed=1;fontSize=15;rotation=-90;" parent="YFRdIE4Qj46ghZl5U2MR-0" vertex="1">
          <mxGeometry x="440" y="115" width="65" height="30" as="geometry" />
        </mxCell>
        <mxCell id="eOcYcok8aMyOiRNlvmHN-42" value="&lt;b&gt;MacVTap&lt;/b&gt;: macvtap1" style="rounded=1;whiteSpace=wrap;html=1;fillColor=#ffe6cc;strokeColor=#d79b00;" parent="YFRdIE4Qj46ghZl5U2MR-0" vertex="1">
          <mxGeometry x="620" y="375" width="120" height="30" as="geometry" />
        </mxCell>
        <mxCell id="eOcYcok8aMyOiRNlvmHN-43" style="edgeStyle=orthogonalEdgeStyle;rounded=1;orthogonalLoop=1;jettySize=auto;html=1;fontSize=15;startArrow=classic;startFill=1;strokeWidth=2;fillColor=#ffe6cc;strokeColor=#d79b00;" parent="YFRdIE4Qj46ghZl5U2MR-0" source="eOcYcok8aMyOiRNlvmHN-29" target="eOcYcok8aMyOiRNlvmHN-42" edge="1">
          <mxGeometry relative="1" as="geometry">
            <mxPoint x="490" y="385" as="targetPoint" />
            <Array as="points">
              <mxPoint x="550" y="275" />
              <mxPoint x="680" y="275" />
            </Array>
          </mxGeometry>
        </mxCell>
        <mxCell id="DWVdgmA3pyIiV3oknewb-1" style="edgeStyle=orthogonalEdgeStyle;rounded=1;orthogonalLoop=1;jettySize=auto;html=1;fontSize=15;fontColor=#999999;startArrow=classic;startFill=1;strokeWidth=2;fillColor=#f8cecc;strokeColor=#b85450;" parent="YFRdIE4Qj46ghZl5U2MR-0" source="DWVdgmA3pyIiV3oknewb-0" edge="1">
          <mxGeometry relative="1" as="geometry">
            <mxPoint x="480" y="445" as="targetPoint" />
            <Array as="points">
              <mxPoint x="455" y="425" />
              <mxPoint x="480" y="425" />
            </Array>
          </mxGeometry>
        </mxCell>
        <mxCell id="DWVdgmA3pyIiV3oknewb-0" value="&lt;b&gt;Bridge:&lt;/b&gt; br1" style="rounded=1;whiteSpace=wrap;html=1;fillColor=#f8cecc;strokeColor=#b85450;" parent="YFRdIE4Qj46ghZl5U2MR-0" vertex="1">
          <mxGeometry x="415" y="375" width="80" height="30" as="geometry" />
        </mxCell>
        <mxCell id="DWVdgmA3pyIiV3oknewb-3" style="edgeStyle=orthogonalEdgeStyle;rounded=1;orthogonalLoop=1;jettySize=auto;html=1;entryX=0.5;entryY=0;entryDx=0;entryDy=0;fontSize=15;fontColor=#999999;startArrow=classic;startFill=1;strokeWidth=2;fillColor=#f8cecc;strokeColor=#b85450;" parent="YFRdIE4Qj46ghZl5U2MR-0" source="DWVdgmA3pyIiV3oknewb-2" target="DWVdgmA3pyIiV3oknewb-0" edge="1">
          <mxGeometry relative="1" as="geometry" />
        </mxCell>
        <mxCell id="DWVdgmA3pyIiV3oknewb-9" style="edgeStyle=orthogonalEdgeStyle;rounded=1;orthogonalLoop=1;jettySize=auto;html=1;fontSize=15;fontColor=#999999;startArrow=classic;startFill=1;strokeWidth=2;fillColor=#f8cecc;strokeColor=#b85450;" parent="YFRdIE4Qj46ghZl5U2MR-0" source="DWVdgmA3pyIiV3oknewb-2" edge="1">
          <mxGeometry relative="1" as="geometry">
            <mxPoint x="500" y="245" as="targetPoint" />
            <Array as="points">
              <mxPoint x="450" y="275" />
              <mxPoint x="500" y="275" />
              <mxPoint x="500" y="245" />
            </Array>
          </mxGeometry>
        </mxCell>
        <mxCell id="DWVdgmA3pyIiV3oknewb-2" value="&lt;b&gt;TAP&lt;/b&gt;: tap1" style="rounded=1;whiteSpace=wrap;html=1;fillColor=#f8cecc;strokeColor=#b85450;" parent="YFRdIE4Qj46ghZl5U2MR-0" vertex="1">
          <mxGeometry x="415" y="305" width="80" height="30" as="geometry" />
        </mxCell>
        <mxCell id="DWVdgmA3pyIiV3oknewb-5" style="edgeStyle=orthogonalEdgeStyle;rounded=1;orthogonalLoop=1;jettySize=auto;html=1;fontSize=15;fontColor=#999999;startArrow=classic;startFill=1;strokeWidth=2;fillColor=#f5f5f5;strokeColor=#666666;" parent="YFRdIE4Qj46ghZl5U2MR-0" source="DWVdgmA3pyIiV3oknewb-4" target="eOcYcok8aMyOiRNlvmHN-25" edge="1">
          <mxGeometry relative="1" as="geometry" />
        </mxCell>
        <mxCell id="DWVdgmA3pyIiV3oknewb-6" style="edgeStyle=orthogonalEdgeStyle;rounded=1;orthogonalLoop=1;jettySize=auto;html=1;fontSize=15;fontColor=#999999;startArrow=classic;startFill=1;strokeWidth=2;fillColor=#f5f5f5;strokeColor=#666666;" parent="YFRdIE4Qj46ghZl5U2MR-0" source="DWVdgmA3pyIiV3oknewb-4" target="eOcYcok8aMyOiRNlvmHN-31" edge="1">
          <mxGeometry relative="1" as="geometry">
            <Array as="points">
              <mxPoint x="810" y="275" />
              <mxPoint x="760" y="275" />
            </Array>
          </mxGeometry>
        </mxCell>
        <mxCell id="DWVdgmA3pyIiV3oknewb-4" value="&lt;b&gt;TAP&lt;/b&gt;: tap0" style="rounded=1;whiteSpace=wrap;html=1;fillColor=#f5f5f5;strokeColor=#666666;fontColor=#333333;" parent="YFRdIE4Qj46ghZl5U2MR-0" vertex="1">
          <mxGeometry x="770" y="305" width="80" height="30" as="geometry" />
        </mxCell>
        <mxCell id="PKLxGC5-7H0PuQVVWCJy-4" style="edgeStyle=orthogonalEdgeStyle;rounded=1;orthogonalLoop=1;jettySize=auto;html=1;fontSize=15;fontColor=#999999;startArrow=classic;startFill=1;strokeWidth=2;entryX=0.75;entryY=0;entryDx=0;entryDy=0;fillColor=#dae8fc;strokeColor=#6c8ebf;" parent="YFRdIE4Qj46ghZl5U2MR-0" source="DWVdgmA3pyIiV3oknewb-10" target="eOcYcok8aMyOiRNlvmHN-15" edge="1">
          <mxGeometry relative="1" as="geometry">
            <Array as="points">
              <mxPoint x="663" y="495" />
              <mxPoint x="553" y="495" />
            </Array>
          </mxGeometry>
        </mxCell>
        <mxCell id="DWVdgmA3pyIiV3oknewb-10" value="&lt;div&gt;&lt;b&gt;DPDK&lt;/b&gt;: &lt;b&gt;&lt;br&gt;&lt;/b&gt;&lt;/div&gt;&lt;div&gt;libmoon&lt;br&gt;&lt;/div&gt;&lt;div&gt;l2-reflector&lt;br&gt;&lt;/div&gt;" style="rounded=1;whiteSpace=wrap;html=1;fillColor=#dae8fc;strokeColor=#6c8ebf;" parent="YFRdIE4Qj46ghZl5U2MR-0" vertex="1">
          <mxGeometry x="602.5" y="455" width="90" height="60" as="geometry" />
        </mxCell>
        <mxCell id="PKLxGC5-7H0PuQVVWCJy-1" style="edgeStyle=orthogonalEdgeStyle;rounded=1;orthogonalLoop=1;jettySize=auto;html=1;entryX=1;entryY=0.5;entryDx=0;entryDy=0;fontSize=15;fontColor=#999999;startArrow=classic;startFill=1;strokeWidth=2;fillColor=#d5e8d4;strokeColor=#82b366;" parent="YFRdIE4Qj46ghZl5U2MR-0" source="DWVdgmA3pyIiV3oknewb-11" target="DWVdgmA3pyIiV3oknewb-0" edge="1">
          <mxGeometry relative="1" as="geometry">
            <Array as="points">
              <mxPoint x="530" y="390" />
            </Array>
          </mxGeometry>
        </mxCell>
        <mxCell id="PKLxGC5-7H0PuQVVWCJy-2" style="edgeStyle=orthogonalEdgeStyle;rounded=1;orthogonalLoop=1;jettySize=auto;html=1;entryX=0;entryY=0.5;entryDx=0;entryDy=0;fontSize=15;fontColor=#999999;startArrow=classic;startFill=1;strokeWidth=2;fillColor=#d5e8d4;strokeColor=#82b366;" parent="YFRdIE4Qj46ghZl5U2MR-0" source="DWVdgmA3pyIiV3oknewb-11" target="eOcYcok8aMyOiRNlvmHN-42" edge="1">
          <mxGeometry relative="1" as="geometry">
            <Array as="points">
              <mxPoint x="580" y="390" />
            </Array>
          </mxGeometry>
        </mxCell>
        <mxCell id="PKLxGC5-7H0PuQVVWCJy-3" style="edgeStyle=orthogonalEdgeStyle;rounded=1;orthogonalLoop=1;jettySize=auto;html=1;fontSize=15;fontColor=#999999;startArrow=classic;startFill=1;strokeWidth=2;fillColor=#d5e8d4;strokeColor=#82b366;" parent="YFRdIE4Qj46ghZl5U2MR-0" source="DWVdgmA3pyIiV3oknewb-11" target="eOcYcok8aMyOiRNlvmHN-27" edge="1">
          <mxGeometry relative="1" as="geometry">
            <Array as="points">
              <mxPoint x="560" y="400" />
              <mxPoint x="520" y="400" />
            </Array>
          </mxGeometry>
        </mxCell>
        <mxCell id="DWVdgmA3pyIiV3oknewb-11" value="&lt;div&gt;&lt;b&gt;XDP&lt;/b&gt;: &lt;b&gt;&lt;br&gt;&lt;/b&gt;&lt;/div&gt;&lt;div&gt;xdp-reflector&lt;br&gt;&lt;/div&gt;" style="rounded=1;whiteSpace=wrap;html=1;fillColor=#d5e8d4;strokeColor=#82b366;" parent="YFRdIE4Qj46ghZl5U2MR-0" vertex="1">
          <mxGeometry x="517.5" y="295" width="85" height="60" as="geometry" />
        </mxCell>
      </root>
    </mxGraphModel>
  </diagram>
  <diagram name="Test System Simplified" id="rXSCR17Ogqu7ujWRzkKa">
    <mxGraphModel dx="1354" dy="755" grid="1" gridSize="10" guides="1" tooltips="1" connect="1" arrows="1" fold="1" page="1" pageScale="1" pageWidth="900" pageHeight="700" math="0" shadow="0">
      <root>
        <mxCell id="PVZ6DmlAn2y1c39xtMip-0" />
        <mxCell id="PVZ6DmlAn2y1c39xtMip-1" parent="PVZ6DmlAn2y1c39xtMip-0" />
        <mxCell id="PVZ6DmlAn2y1c39xtMip-3" value="" style="rounded=1;whiteSpace=wrap;html=1;" vertex="1" parent="PVZ6DmlAn2y1c39xtMip-1">
          <mxGeometry x="610" y="250" width="250" height="231.5" as="geometry" />
        </mxCell>
        <mxCell id="PVZ6DmlAn2y1c39xtMip-4" value="Guest" style="text;html=1;strokeColor=none;fillColor=none;align=center;verticalAlign=middle;whiteSpace=wrap;rounded=0;fontStyle=1;fontSize=15;" vertex="1" parent="PVZ6DmlAn2y1c39xtMip-1">
          <mxGeometry x="605" y="256" width="270" height="32" as="geometry" />
        </mxCell>
        <mxCell id="PVZ6DmlAn2y1c39xtMip-5" value="" style="rounded=1;whiteSpace=wrap;html=1;" vertex="1" parent="PVZ6DmlAn2y1c39xtMip-1">
          <mxGeometry x="25" y="250" width="265" height="298" as="geometry" />
        </mxCell>
        <mxCell id="PVZ6DmlAn2y1c39xtMip-6" value="LoadGen" style="text;html=1;strokeColor=none;fillColor=none;align=center;verticalAlign=middle;whiteSpace=wrap;rounded=0;fontStyle=1;fontSize=15;" vertex="1" parent="PVZ6DmlAn2y1c39xtMip-1">
          <mxGeometry x="67.5" y="258" width="172.5" height="30" as="geometry" />
        </mxCell>
        <mxCell id="PVZ6DmlAn2y1c39xtMip-7" value="" style="rounded=1;whiteSpace=wrap;html=1;" vertex="1" parent="PVZ6DmlAn2y1c39xtMip-1">
          <mxGeometry x="310" y="250" width="270" height="298" as="geometry" />
        </mxCell>
        <mxCell id="PVZ6DmlAn2y1c39xtMip-8" value="&lt;div&gt;Host&lt;/div&gt;" style="text;html=1;strokeColor=none;fillColor=none;align=center;verticalAlign=middle;whiteSpace=wrap;rounded=0;fontStyle=1;fontSize=15;" vertex="1" parent="PVZ6DmlAn2y1c39xtMip-1">
          <mxGeometry x="330" y="258" width="230" height="30" as="geometry" />
        </mxCell>
        <mxCell id="PVZ6DmlAn2y1c39xtMip-14" value="&lt;b&gt;NIC&lt;/b&gt;: Intel 82599ES 10G" style="rounded=1;whiteSpace=wrap;html=1;fillColor=#e1d5e7;strokeColor=#9673a6;" vertex="1" parent="PVZ6DmlAn2y1c39xtMip-1">
          <mxGeometry x="90" y="528" width="150" height="40" as="geometry" />
        </mxCell>
        <mxCell id="PVZ6DmlAn2y1c39xtMip-15" value="&lt;b&gt;NIC&lt;/b&gt;: Intel 82599ES 10G" style="rounded=1;whiteSpace=wrap;html=1;fillColor=#e1d5e7;strokeColor=#9673a6;" vertex="1" parent="PVZ6DmlAn2y1c39xtMip-1">
          <mxGeometry x="350" y="528" width="150" height="40" as="geometry" />
        </mxCell>
        <mxCell id="PVZ6DmlAn2y1c39xtMip-16" style="edgeStyle=orthogonalEdgeStyle;rounded=1;orthogonalLoop=1;jettySize=auto;html=1;exitX=0.5;exitY=1;exitDx=0;exitDy=0;startArrow=classic;startFill=1;strokeWidth=2;" edge="1" parent="PVZ6DmlAn2y1c39xtMip-1" source="PVZ6DmlAn2y1c39xtMip-14" target="PVZ6DmlAn2y1c39xtMip-15">
          <mxGeometry relative="1" as="geometry">
            <mxPoint x="440" y="568" as="targetPoint" />
            <Array as="points">
              <mxPoint x="165" y="608" />
              <mxPoint x="430" y="608" />
            </Array>
          </mxGeometry>
        </mxCell>
        <mxCell id="PVZ6DmlAn2y1c39xtMip-17" value="&lt;b&gt;Cable&lt;/b&gt;: Coaxial DAC 10G" style="text;html=1;align=center;verticalAlign=middle;whiteSpace=wrap;rounded=0;" vertex="1" parent="PVZ6DmlAn2y1c39xtMip-1">
          <mxGeometry x="220" y="578" width="140" height="30" as="geometry" />
        </mxCell>
        <mxCell id="PVZ6DmlAn2y1c39xtMip-20" style="edgeStyle=orthogonalEdgeStyle;rounded=1;orthogonalLoop=1;jettySize=auto;html=1;startArrow=classic;startFill=1;strokeWidth=2;fillColor=#f5f5f5;strokeColor=#666666;" edge="1" parent="PVZ6DmlAn2y1c39xtMip-1" target="PVZ6DmlAn2y1c39xtMip-13">
          <mxGeometry relative="1" as="geometry">
            <mxPoint x="820" y="498" as="sourcePoint" />
          </mxGeometry>
        </mxCell>
        <mxCell id="PVZ6DmlAn2y1c39xtMip-22" style="edgeStyle=orthogonalEdgeStyle;rounded=1;orthogonalLoop=1;jettySize=auto;html=1;startArrow=classic;startFill=1;strokeWidth=2;fillColor=#dae8fc;strokeColor=#6c8ebf;" edge="1" parent="PVZ6DmlAn2y1c39xtMip-1" source="PVZ6DmlAn2y1c39xtMip-23" target="PVZ6DmlAn2y1c39xtMip-14">
          <mxGeometry relative="1" as="geometry" />
        </mxCell>
        <mxCell id="PVZ6DmlAn2y1c39xtMip-23" value="&lt;div&gt;&lt;b&gt;DPDK&lt;/b&gt;:&lt;b&gt; &lt;/b&gt;&lt;br&gt;&lt;/div&gt;&lt;div&gt;MoonGen&lt;/div&gt;&lt;div&gt;l2-load-latency&lt;br&gt;&lt;/div&gt;" style="rounded=1;whiteSpace=wrap;html=1;fillColor=#dae8fc;strokeColor=#6c8ebf;" vertex="1" parent="PVZ6DmlAn2y1c39xtMip-1">
          <mxGeometry x="109.38" y="425" width="111.25" height="70" as="geometry" />
        </mxCell>
        <mxCell id="PVZ6DmlAn2y1c39xtMip-24" style="edgeStyle=orthogonalEdgeStyle;rounded=1;orthogonalLoop=1;jettySize=auto;html=1;startArrow=classic;startFill=1;strokeWidth=2;fillColor=#f5f5f5;strokeColor=#666666;" edge="1" parent="PVZ6DmlAn2y1c39xtMip-1" source="PVZ6DmlAn2y1c39xtMip-25">
          <mxGeometry relative="1" as="geometry">
            <mxPoint x="820" y="468" as="targetPoint" />
          </mxGeometry>
        </mxCell>
        <mxCell id="PVZ6DmlAn2y1c39xtMip-26" style="edgeStyle=orthogonalEdgeStyle;rounded=1;orthogonalLoop=1;jettySize=auto;html=1;fontSize=15;strokeWidth=2;startArrow=classic;startFill=1;entryX=0.5;entryY=0;entryDx=0;entryDy=0;" edge="1" parent="PVZ6DmlAn2y1c39xtMip-1" source="PVZ6DmlAn2y1c39xtMip-27" target="PVZ6DmlAn2y1c39xtMip-15">
          <mxGeometry relative="1" as="geometry">
            <mxPoint x="425" y="528" as="targetPoint" />
            <Array as="points" />
          </mxGeometry>
        </mxCell>
        <mxCell id="PVZ6DmlAn2y1c39xtMip-27" value="&lt;b&gt;Interface&lt;/b&gt;" style="rounded=1;whiteSpace=wrap;html=1;fillColor=#fff2cc;strokeColor=#d6b656;" vertex="1" parent="PVZ6DmlAn2y1c39xtMip-1">
          <mxGeometry x="365" y="470" width="120" height="30" as="geometry" />
        </mxCell>
        <mxCell id="PVZ6DmlAn2y1c39xtMip-28" style="edgeStyle=orthogonalEdgeStyle;rounded=1;orthogonalLoop=1;jettySize=auto;html=1;fontSize=15;startArrow=classic;startFill=1;strokeWidth=2;fillColor=#ffe6cc;strokeColor=#d79b00;" edge="1" parent="PVZ6DmlAn2y1c39xtMip-1" target="PVZ6DmlAn2y1c39xtMip-27">
          <mxGeometry relative="1" as="geometry">
            <mxPoint x="470" y="440" as="sourcePoint" />
            <Array as="points">
              <mxPoint x="470" y="440" />
            </Array>
          </mxGeometry>
        </mxCell>
        <mxCell id="PVZ6DmlAn2y1c39xtMip-29" value="&lt;b&gt;NIC&lt;/b&gt;: VirtIO Net PCI/MMIO" style="rounded=1;whiteSpace=wrap;html=1;fillColor=#e1d5e7;strokeColor=#9673a6;" vertex="1" parent="PVZ6DmlAn2y1c39xtMip-1">
          <mxGeometry x="550" y="340" width="95" height="40" as="geometry" />
        </mxCell>
        <mxCell id="PVZ6DmlAn2y1c39xtMip-31" style="edgeStyle=orthogonalEdgeStyle;rounded=1;orthogonalLoop=1;jettySize=auto;html=1;entryX=0.5;entryY=0;entryDx=0;entryDy=0;fontSize=15;startArrow=classic;startFill=1;strokeWidth=2;fillColor=#f5f5f5;strokeColor=#666666;" edge="1" parent="PVZ6DmlAn2y1c39xtMip-1" source="PVZ6DmlAn2y1c39xtMip-32">
          <mxGeometry relative="1" as="geometry">
            <mxPoint x="767.5" y="228" as="targetPoint" />
          </mxGeometry>
        </mxCell>
        <mxCell id="KKZDdPLGbFMIkBUef1HF-0" style="edgeStyle=orthogonalEdgeStyle;rounded=1;orthogonalLoop=1;jettySize=auto;html=1;strokeWidth=2;startArrow=classic;startFill=1;" edge="1" parent="PVZ6DmlAn2y1c39xtMip-1" source="PVZ6DmlAn2y1c39xtMip-34" target="PVZ6DmlAn2y1c39xtMip-29">
          <mxGeometry relative="1" as="geometry">
            <mxPoint x="630" y="370" as="targetPoint" />
            <Array as="points">
              <mxPoint x="675" y="370" />
            </Array>
          </mxGeometry>
        </mxCell>
        <mxCell id="PVZ6DmlAn2y1c39xtMip-34" value="&lt;b&gt;Interface&lt;/b&gt;" style="rounded=1;whiteSpace=wrap;html=1;fillColor=#fff2cc;strokeColor=#d6b656;" vertex="1" parent="PVZ6DmlAn2y1c39xtMip-1">
          <mxGeometry x="630" y="425" width="90" height="30" as="geometry" />
        </mxCell>
        <mxCell id="PVZ6DmlAn2y1c39xtMip-35" style="edgeStyle=orthogonalEdgeStyle;rounded=1;orthogonalLoop=1;jettySize=auto;html=1;fontSize=15;startArrow=classic;startFill=1;strokeWidth=2;fillColor=#dae8fc;strokeColor=#6c8ebf;" edge="1" parent="PVZ6DmlAn2y1c39xtMip-1" source="PVZ6DmlAn2y1c39xtMip-39" target="PVZ6DmlAn2y1c39xtMip-29">
          <mxGeometry relative="1" as="geometry">
            <mxPoint x="630" y="350" as="targetPoint" />
            <Array as="points">
              <mxPoint x="725" y="350" />
              <mxPoint x="725" y="350" />
            </Array>
          </mxGeometry>
        </mxCell>
        <mxCell id="PVZ6DmlAn2y1c39xtMip-36" style="edgeStyle=orthogonalEdgeStyle;rounded=1;orthogonalLoop=1;jettySize=auto;html=1;fontSize=15;startArrow=classic;startFill=1;strokeWidth=2;fillColor=#d5e8d4;strokeColor=#82b366;" edge="1" parent="PVZ6DmlAn2y1c39xtMip-1" source="PVZ6DmlAn2y1c39xtMip-37" target="PVZ6DmlAn2y1c39xtMip-34">
          <mxGeometry relative="1" as="geometry" />
        </mxCell>
        <mxCell id="PVZ6DmlAn2y1c39xtMip-37" value="&lt;div&gt;&lt;b&gt;XDP&lt;/b&gt;: &lt;b&gt;&lt;br&gt;&lt;/b&gt;&lt;/div&gt;&lt;div&gt;xdp-reflector&lt;br&gt;&lt;/div&gt;" style="rounded=1;whiteSpace=wrap;html=1;fillColor=#d5e8d4;strokeColor=#82b366;" vertex="1" parent="PVZ6DmlAn2y1c39xtMip-1">
          <mxGeometry x="752.5" y="410" width="85" height="60" as="geometry" />
        </mxCell>
        <mxCell id="PVZ6DmlAn2y1c39xtMip-38" value="" style="rounded=1;whiteSpace=wrap;html=1;fontSize=15;fillColor=none;dashed=1;strokeWidth=2;strokeColor=#999999;rotation=90;" vertex="1" parent="PVZ6DmlAn2y1c39xtMip-1">
          <mxGeometry x="725" y="275" width="100" height="140" as="geometry" />
        </mxCell>
        <mxCell id="PVZ6DmlAn2y1c39xtMip-39" value="&lt;div&gt;&lt;b&gt;DPDK&lt;/b&gt;: &lt;b&gt;&lt;br&gt;&lt;/b&gt;&lt;/div&gt;&lt;div&gt;libmoon&lt;br&gt;&lt;/div&gt;&lt;div&gt;l2-reflector&lt;br&gt;&lt;/div&gt;" style="rounded=1;whiteSpace=wrap;html=1;fillColor=#dae8fc;strokeColor=#6c8ebf;" vertex="1" parent="PVZ6DmlAn2y1c39xtMip-1">
          <mxGeometry x="747.5" y="328" width="90" height="60" as="geometry" />
        </mxCell>
        <mxCell id="PVZ6DmlAn2y1c39xtMip-40" value="&lt;font color=&quot;#999999&quot;&gt;PCI only&lt;/font&gt;" style="text;html=1;strokeColor=none;fillColor=none;align=center;verticalAlign=middle;whiteSpace=wrap;rounded=0;dashed=1;fontSize=15;rotation=0;" vertex="1" parent="PVZ6DmlAn2y1c39xtMip-1">
          <mxGeometry x="715" y="298" width="65" height="30" as="geometry" />
        </mxCell>
        <mxCell id="PVZ6DmlAn2y1c39xtMip-41" value="&lt;b&gt;MacVTap&lt;/b&gt;" style="rounded=1;whiteSpace=wrap;html=1;fillColor=#ffe6cc;strokeColor=#d79b00;" vertex="1" parent="PVZ6DmlAn2y1c39xtMip-1">
          <mxGeometry x="435" y="410" width="80" height="30" as="geometry" />
        </mxCell>
        <mxCell id="PVZ6DmlAn2y1c39xtMip-42" style="edgeStyle=orthogonalEdgeStyle;rounded=1;orthogonalLoop=1;jettySize=auto;html=1;fontSize=15;startArrow=classic;startFill=1;strokeWidth=2;fillColor=#ffe6cc;strokeColor=#d79b00;" edge="1" parent="PVZ6DmlAn2y1c39xtMip-1" source="PVZ6DmlAn2y1c39xtMip-29" target="PVZ6DmlAn2y1c39xtMip-41">
          <mxGeometry relative="1" as="geometry">
            <mxPoint x="400" y="398" as="targetPoint" />
            <Array as="points">
              <mxPoint x="560" y="425" />
            </Array>
          </mxGeometry>
        </mxCell>
        <mxCell id="PVZ6DmlAn2y1c39xtMip-43" style="edgeStyle=orthogonalEdgeStyle;rounded=1;orthogonalLoop=1;jettySize=auto;html=1;fontSize=15;fontColor=#999999;startArrow=classic;startFill=1;strokeWidth=2;fillColor=#f8cecc;strokeColor=#b85450;" edge="1" parent="PVZ6DmlAn2y1c39xtMip-1" source="PVZ6DmlAn2y1c39xtMip-44">
          <mxGeometry relative="1" as="geometry">
            <mxPoint x="390" y="470" as="targetPoint" />
            <Array as="points">
              <mxPoint x="365" y="438" />
              <mxPoint x="390" y="438" />
              <mxPoint x="390" y="470" />
            </Array>
          </mxGeometry>
        </mxCell>
        <mxCell id="PVZ6DmlAn2y1c39xtMip-44" value="&lt;b&gt;Bridge&lt;/b&gt;" style="rounded=1;whiteSpace=wrap;html=1;fillColor=#f8cecc;strokeColor=#b85450;" vertex="1" parent="PVZ6DmlAn2y1c39xtMip-1">
          <mxGeometry x="335" y="410" width="80" height="30" as="geometry" />
        </mxCell>
        <mxCell id="PVZ6DmlAn2y1c39xtMip-45" style="edgeStyle=orthogonalEdgeStyle;rounded=1;orthogonalLoop=1;jettySize=auto;html=1;entryX=0.5;entryY=0;entryDx=0;entryDy=0;fontSize=15;fontColor=#999999;startArrow=classic;startFill=1;strokeWidth=2;fillColor=#f8cecc;strokeColor=#b85450;" edge="1" parent="PVZ6DmlAn2y1c39xtMip-1" source="PVZ6DmlAn2y1c39xtMip-47" target="PVZ6DmlAn2y1c39xtMip-44">
          <mxGeometry relative="1" as="geometry" />
        </mxCell>
        <mxCell id="PVZ6DmlAn2y1c39xtMip-46" style="edgeStyle=orthogonalEdgeStyle;rounded=1;orthogonalLoop=1;jettySize=auto;html=1;fontSize=15;fontColor=#999999;startArrow=classic;startFill=1;strokeWidth=2;fillColor=#f8cecc;strokeColor=#b85450;" edge="1" parent="PVZ6DmlAn2y1c39xtMip-1" source="PVZ6DmlAn2y1c39xtMip-47" target="PVZ6DmlAn2y1c39xtMip-29">
          <mxGeometry relative="1" as="geometry">
            <mxPoint x="400" y="250" as="targetPoint" />
            <Array as="points">
              <mxPoint x="375" y="310" />
              <mxPoint x="560" y="310" />
            </Array>
          </mxGeometry>
        </mxCell>
        <mxCell id="PVZ6DmlAn2y1c39xtMip-47" value="&lt;b&gt;TAP&lt;/b&gt;" style="rounded=1;whiteSpace=wrap;html=1;fillColor=#f8cecc;strokeColor=#b85450;" vertex="1" parent="PVZ6DmlAn2y1c39xtMip-1">
          <mxGeometry x="335" y="340" width="80" height="30" as="geometry" />
        </mxCell>
        <mxCell id="PVZ6DmlAn2y1c39xtMip-48" style="edgeStyle=orthogonalEdgeStyle;rounded=1;orthogonalLoop=1;jettySize=auto;html=1;fontSize=15;fontColor=#999999;startArrow=classic;startFill=1;strokeWidth=2;fillColor=#f5f5f5;strokeColor=#666666;" edge="1" parent="PVZ6DmlAn2y1c39xtMip-1" source="PVZ6DmlAn2y1c39xtMip-50">
          <mxGeometry relative="1" as="geometry">
            <mxPoint x="820.0999999999999" y="398" as="targetPoint" />
          </mxGeometry>
        </mxCell>
        <mxCell id="PVZ6DmlAn2y1c39xtMip-49" style="edgeStyle=orthogonalEdgeStyle;rounded=1;orthogonalLoop=1;jettySize=auto;html=1;fontSize=15;fontColor=#999999;startArrow=classic;startFill=1;strokeWidth=2;fillColor=#f5f5f5;strokeColor=#666666;" edge="1" parent="PVZ6DmlAn2y1c39xtMip-1" target="PVZ6DmlAn2y1c39xtMip-30">
          <mxGeometry relative="1" as="geometry">
            <Array as="points">
              <mxPoint x="820" y="298" />
              <mxPoint x="770" y="298" />
            </Array>
            <mxPoint x="820" y="328" as="sourcePoint" />
          </mxGeometry>
        </mxCell>
      </root>
    </mxGraphModel>
  </diagram>
</mxfile>
